<?xml version="1.0" encoding="UTF-8"?>
<!-- Generator: Adobe Illustrator 16.0.4, SVG Export Plug-In . SVG Version: 6.00 Build 0)  -->
<!DOCTYPE svg PUBLIC "-//W3C//DTD SVG 1.1//EN" "http://www.w3.org/Graphics/SVG/1.1/DTD/svg11.dtd">
<svg version="1.1" id="Ebene_1" xmlns="http://www.w3.org/2000/svg" xmlns:xlink="http://www.w3.org/1999/xlink" x="0px" y="0px" width="48px" height="48px" viewBox="0 0 48 48" enable-background="new 0 0 48 48" xml:space="preserve">
<path fill="#E20613" d="M24,47.999c13.253,0,24-10.742,24-23.994C48,10.748,37.253,0,24,0C10.744,0,0,10.748,0,24.005  C0,37.257,10.744,47.999,24,47.999z"/>
<path fill="#FFFFFF" d="M43.08,25.365c0,0-0.625,0.451-1.068,0.451c-0.337,0-0.521-0.282-0.521-0.589  c0-0.695,1.087-4.115,1.087-4.115l-2.659,0.037l-0.138,0.463c0,0-0.388-0.784-1.783-0.784c-2.705,0-4.189,2.332-4.253,3.705  c-0.014,0.298-0.017,0.34-0.017,0.34c-0.062,0.073-1.019,1.161-2.193,1.161c-0.938,0-1.094-0.787-1.094-1.29  c0-0.546,0.453-2.702,1.732-2.702c0.698,0,1.125,0.605,1.125,0.605l0.377-1.234c0,0-0.595-0.462-1.81-0.466  c-2.615-0.003-4.401,1.961-4.465,3.73c-0.014,0.265-0.022,0.351-0.02,0.367c-0.086,0.106-0.73,0.848-1.567,0.848  c-0.573,0-0.573-0.447-0.573-0.646c0-0.268,1.133-4.118,1.133-4.118l-2.958,0.043l-1.055,3.737c0,0-1.621,1.174-3.887,1.336  c-1.167,0.078-1.57-0.629-1.57-1.045c0-0.173,0-0.173,0-0.173s0.476,0.03,0.833,0.03c0.278,0,3.73-0.239,3.73-2.352  c0-1.207-1.207-1.667-2.735-1.667c-2.821,0-4.799,1.75-4.799,3.827c0,1.895,1.621,2.708,3.708,2.708c2.368,0,4.68-1.448,4.68-1.448  s0.129,1.448,1.997,1.448c1.928,0,3.44-1.448,3.44-1.448s0.84,1.393,2.759,1.393c1.961,0,3.466-1.584,3.466-1.584  s0.525,1.495,2.467,1.495c1.519,0,2.331-0.996,2.331-0.996s0.435,0.996,1.757,0.996c1.614,0,2.825-1.139,2.825-1.139L43.08,25.365z   M18.854,21.9c0.397,0.022,0.665,0.307,0.652,0.598c-0.066,1.878-2.381,1.588-2.381,1.588S17.502,21.817,18.854,21.9z   M37.447,26.034c-0.728,0-0.728-0.8-0.728-1.032c0-0.612,0.48-3.042,1.801-3.042c0.555,0,0.853,0.47,0.853,0.82  C39.373,22.853,39.039,26.034,37.447,26.034z"/>
<path fill="#FFFFFF" d="M43.613,27.896c0,0-6.211,2.162-18.064,2.017c-8.176-0.099-14.41-2.513-14.41-2.513s0.202-0.395,0.334-0.659  c0.82-1.669,1.786-5.059,1.786-5.059s5.619-1.568,5.619-6.029c0-1.412-1.313-2.322-2.609-2.378  c-4.528-0.175-5.785,6.277-6.062,7.375c-0.016,0.08-0.023,0.103-0.023,0.103c-1.399-0.192-2.186-0.477-2.186-0.477l-0.321,0.87  c0.942,0.446,2.315,0.592,2.315,0.592c-0.271,1.73-1.614,5.003-1.614,5.003s-1.24-0.409-2.778-0.409  c-1.998,0-2.682,0.949-2.731,1.544c-0.133,1.542,1.806,2.266,3.158,2.266c2.639,0,4.012-1.425,4.012-1.425s7.425,2.805,15.17,2.805  c10.137,0,18.687-2.7,18.687-2.7L43.613,27.896z M16.483,14.555c0.87,0,1.158,0.705,1.085,1.339  c-0.424,3.728-4.125,4.581-4.125,4.581S14.363,14.555,16.483,14.555z M5.457,28.94c-0.748,0.023-1.234-0.472-1.234-0.75  c0-0.615,0.754-0.71,1.234-0.679c1.158,0.063,2.153,0.461,2.153,0.461S6.436,28.912,5.457,28.94z"/>
<path fill="#FFFFFF" d="M25.479,17.624c-0.943,0-1.637,0.384-1.637,1.267c0,0.893,0.803,1.138,1.637,1.138  c0.836,0,1.601-0.394,1.601-1.303C27.08,17.812,26.16,17.624,25.479,17.624z"/>
</svg>